<svg width="150" height="60" viewBox="0 0 150 60" fill="none" xmlns="http://www.w3.org/2000/svg">
  <circle cx="30" cy="30" r="28" stroke="#1E3A8A" stroke-width="2" fill="white"/>
  <circle cx="30" cy="30" r="24" stroke="#1E3A8A" stroke-width="1" fill="white"/>
  <path d="M30 6C16.7452 6 6 16.7452 6 30C6 43.2548 16.7452 54 30 54C43.2548 54 54 43.2548 54 30C54 16.7452 43.2548 6 30 6ZM30 8C42.1503 8 52 17.8497 52 30C52 42.1503 42.1503 52 30 52C17.8497 52 8 42.1503 8 30C8 17.8497 17.8497 8 30 8Z" fill="#1E3A8A"/>
  <path d="M30 12C19.0589 12 10 21.0589 10 32C10 42.9411 19.0589 52 30 52C40.9411 52 50 42.9411 50 32C50 21.0589 40.9411 12 30 12ZM30 14C39.8366 14 48 22.1634 48 32C48 41.8366 39.8366 50 30 50C20.1634 50 12 41.8366 12 32C12 22.1634 20.1634 14 30 14Z" fill="#1E3A8A"/>
  <path d="M30 18C22.268 18 16 24.268 16 32C16 39.732 22.268 46 30 46C37.732 46 44 39.732 44 32C44 24.268 37.732 18 30 18ZM30 20C36.6274 20 42 25.3726 42 32C42 38.6274 36.6274 44 30 44C23.3726 44 18 38.6274 18 32C18 25.3726 23.3726 20 30 20Z" fill="#1E3A8A"/>
  <path d="M30 24C25.5817 24 22 27.5817 22 32C22 36.4183 25.5817 40 30 40C34.4183 40 38 36.4183 38 32C38 27.5817 34.4183 24 30 24ZM30 26C33.3137 26 36 28.6863 36 32C36 35.3137 33.3137 38 30 38C26.6863 38 24 35.3137 24 32C24 28.6863 26.6863 26 30 26Z" fill="#1E3A8A"/>
  <path d="M65 20H85V22H65V20Z" fill="#1E3A8A"/>
  <path d="M65 24H85V26H65V24Z" fill="#1E3A8A"/>
  <path d="M65 28H85V30H65V28Z" fill="#1E3A8A"/>
  <path d="M65 32H85V34H65V32Z" fill="#1E3A8A"/>
  <path d="M65 36H85V38H65V36Z" fill="#1E3A8A"/>
  <path d="M65 40H85V42H65V40Z" fill="#1E3A8A"/>
  <text x="65" y="18" font-family="Arial" font-size="10" font-weight="bold" fill="#1E3A8A">UNITED</text>
  <text x="65" y="50" font-family="Arial" font-size="10" font-weight="bold" fill="#1E3A8A">TIMBER WORKS</text>
</svg>
